<svg xmlns="http://www.w3.org/2000/svg" xmlns:xlink="http://www.w3.org/1999/xlink" width="500" zoomAndPan="magnify" viewBox="0 0 375 374.999991" height="500" preserveAspectRatio="xMidYMid meet" version="1.0"><defs><g/><clipPath id="d0bad9790e"><path d="M 63 116 L 207 116 L 207 269.199219 L 63 269.199219 Z M 63 116 " clip-rule="nonzero"/></clipPath><clipPath id="438f06b569"><path d="M 37.5 105.699219 L 65 105.699219 L 65 139 L 37.5 139 Z M 37.5 105.699219 " clip-rule="nonzero"/></clipPath></defs><g fill="#f2541d" fill-opacity="1"><g transform="translate(172.564563, 228.11105)"><g><path d="M 17.640625 0.640625 C 12.773438 0.640625 9.3125 -0.382812 7.25 -2.4375 C 5.195312 -4.5 4.09375 -7.910156 3.9375 -12.671875 C 3.820312 -16.628906 3.75 -20.828125 3.71875 -25.265625 C 3.695312 -29.703125 3.695312 -34.140625 3.71875 -38.578125 C 3.75 -43.015625 3.820312 -47.1875 3.9375 -51.09375 C 4.09375 -56.0625 5.210938 -59.585938 7.296875 -61.671875 C 9.378906 -63.753906 12.828125 -64.796875 17.640625 -64.796875 C 22.191406 -64.796875 25.507812 -63.78125 27.59375 -61.75 C 29.675781 -59.71875 30.851562 -56.328125 31.125 -51.578125 C 31.332031 -48.046875 31.332031 -44.515625 31.125 -40.984375 L 22.453125 -40.984375 C 22.566406 -42.796875 22.625 -44.8125 22.625 -47.03125 C 22.625 -49.257812 22.566406 -51.28125 22.453125 -53.09375 C 22.296875 -56.144531 20.691406 -57.671875 17.640625 -57.671875 C 14.429688 -57.671875 12.75 -56.144531 12.59375 -53.09375 C 12.375 -46.40625 12.265625 -39.410156 12.265625 -32.109375 C 12.265625 -24.816406 12.375 -17.828125 12.59375 -11.140625 C 12.695312 -8.046875 14.378906 -6.5 17.640625 -6.5 C 21.015625 -6.5 22.78125 -8.046875 22.9375 -11.140625 C 23.039062 -12.691406 23.09375 -14.441406 23.09375 -16.390625 C 23.09375 -18.347656 23.039062 -20.078125 22.9375 -21.578125 L 18.125 -21.578125 L 18.125 -29.1875 L 31.4375 -29.1875 C 31.539062 -26.945312 31.578125 -24.410156 31.546875 -21.578125 C 31.523438 -18.742188 31.460938 -15.773438 31.359375 -12.671875 C 31.140625 -7.910156 29.972656 -4.5 27.859375 -2.4375 C 25.753906 -0.382812 22.347656 0.640625 17.640625 0.640625 Z M 17.640625 0.640625 "/></g></g></g><g fill="#f2541d" fill-opacity="1"><g transform="translate(210.3403, 228.11105)"><g><path d="M 17.640625 0.640625 C 12.828125 0.640625 9.363281 -0.375 7.25 -2.40625 C 5.144531 -4.4375 4.039062 -7.832031 3.9375 -12.59375 C 3.664062 -25.582031 3.664062 -38.601562 3.9375 -51.65625 C 4.039062 -56.351562 5.144531 -59.71875 7.25 -61.75 C 9.363281 -63.78125 12.828125 -64.796875 17.640625 -64.796875 C 22.453125 -64.796875 25.898438 -63.78125 27.984375 -61.75 C 30.078125 -59.71875 31.203125 -56.351562 31.359375 -51.65625 C 31.679688 -38.550781 31.679688 -25.53125 31.359375 -12.59375 C 31.203125 -7.832031 30.078125 -4.4375 27.984375 -2.40625 C 25.898438 -0.375 22.453125 0.640625 17.640625 0.640625 Z M 17.640625 -6.5 C 20.898438 -6.5 22.585938 -8.019531 22.703125 -11.0625 C 22.859375 -15.5 22.945312 -20.125 22.96875 -24.9375 C 23 -29.75 22.988281 -34.5625 22.9375 -39.375 C 22.882812 -44.1875 22.804688 -48.785156 22.703125 -53.171875 C 22.585938 -56.171875 20.898438 -57.671875 17.640625 -57.671875 C 14.328125 -57.671875 12.644531 -56.171875 12.59375 -53.171875 C 12.425781 -48.785156 12.316406 -44.1875 12.265625 -39.375 C 12.210938 -34.5625 12.210938 -29.75 12.265625 -24.9375 C 12.316406 -20.125 12.425781 -15.5 12.59375 -11.0625 C 12.644531 -8.019531 14.328125 -6.5 17.640625 -6.5 Z M 17.640625 -6.5 "/></g></g></g><g fill="#f2541d" fill-opacity="1"><g transform="translate(249.720098, 228.11105)"><g><path d="M 17.640625 0.640625 C 12.828125 0.640625 9.363281 -0.375 7.25 -2.40625 C 5.144531 -4.4375 4.039062 -7.832031 3.9375 -12.59375 C 3.664062 -25.582031 3.664062 -38.601562 3.9375 -51.65625 C 4.039062 -56.351562 5.144531 -59.71875 7.25 -61.75 C 9.363281 -63.78125 12.828125 -64.796875 17.640625 -64.796875 C 22.453125 -64.796875 25.898438 -63.78125 27.984375 -61.75 C 30.078125 -59.71875 31.203125 -56.351562 31.359375 -51.65625 C 31.679688 -38.550781 31.679688 -25.53125 31.359375 -12.59375 C 31.203125 -7.832031 30.078125 -4.4375 27.984375 -2.40625 C 25.898438 -0.375 22.453125 0.640625 17.640625 0.640625 Z M 17.640625 -6.5 C 20.898438 -6.5 22.585938 -8.019531 22.703125 -11.0625 C 22.859375 -15.5 22.945312 -20.125 22.96875 -24.9375 C 23 -29.75 22.988281 -34.5625 22.9375 -39.375 C 22.882812 -44.1875 22.804688 -48.785156 22.703125 -53.171875 C 22.585938 -56.171875 20.898438 -57.671875 17.640625 -57.671875 C 14.328125 -57.671875 12.644531 -56.171875 12.59375 -53.171875 C 12.425781 -48.785156 12.316406 -44.1875 12.265625 -39.375 C 12.210938 -34.5625 12.210938 -29.75 12.265625 -24.9375 C 12.316406 -20.125 12.425781 -15.5 12.59375 -11.0625 C 12.644531 -8.019531 14.328125 -6.5 17.640625 -6.5 Z M 17.640625 -6.5 "/></g></g></g><g fill="#f2541d" fill-opacity="1"><g transform="translate(289.099902, 228.11105)"><g><path d="M 3.6875 0 L 3.6875 -64.15625 L 17 -64.15625 C 21.8125 -64.15625 25.300781 -63.097656 27.46875 -60.984375 C 29.632812 -58.878906 30.769531 -55.421875 30.875 -50.609375 C 30.976562 -46.222656 31.046875 -42.035156 31.078125 -38.046875 C 31.109375 -34.066406 31.109375 -30.097656 31.078125 -26.140625 C 31.046875 -22.191406 30.976562 -18.023438 30.875 -13.640625 C 30.769531 -8.773438 29.632812 -5.285156 27.46875 -3.171875 C 25.300781 -1.054688 21.785156 0 16.921875 0 Z M 12.4375 -7.703125 L 16.921875 -7.703125 C 20.398438 -7.703125 22.164062 -9.332031 22.21875 -12.59375 C 22.488281 -25.582031 22.488281 -38.578125 22.21875 -51.578125 C 22.164062 -54.835938 20.425781 -56.46875 17 -56.46875 L 12.4375 -56.46875 Z M 12.4375 -7.703125 "/></g></g></g><g fill="#f2541d" fill-opacity="1"><g transform="translate(327.998483, 228.11105)"><g><path d="M 17.640625 0.640625 C 12.828125 0.640625 9.40625 -0.382812 7.375 -2.4375 C 5.34375 -4.5 4.222656 -7.910156 4.015625 -12.671875 C 3.960938 -14.546875 3.945312 -16.363281 3.96875 -18.125 C 4 -19.882812 4.09375 -21.726562 4.25 -23.65625 L 12.4375 -23.65625 C 12.320312 -21.46875 12.25 -19.300781 12.21875 -17.15625 C 12.195312 -15.019531 12.269531 -13.015625 12.4375 -11.140625 C 12.539062 -9.535156 13.003906 -8.359375 13.828125 -7.609375 C 14.660156 -6.867188 15.929688 -6.5 17.640625 -6.5 C 19.296875 -6.5 20.507812 -6.867188 21.28125 -7.609375 C 22.0625 -8.359375 22.507812 -9.535156 22.625 -11.140625 C 22.78125 -12.960938 22.84375 -14.609375 22.8125 -16.078125 C 22.789062 -17.546875 22.726562 -19.269531 22.625 -21.25 C 22.507812 -22.800781 22.1875 -24.140625 21.65625 -25.265625 C 21.125 -26.390625 20.160156 -27.140625 18.765625 -27.515625 L 13.390625 -28.875 C 9.753906 -29.78125 7.269531 -31.351562 5.9375 -33.59375 C 4.601562 -35.84375 3.878906 -38.894531 3.765625 -42.75 C 3.765625 -44.1875 3.765625 -45.65625 3.765625 -47.15625 C 3.765625 -48.65625 3.789062 -50.128906 3.84375 -51.578125 C 4.007812 -56.328125 5.117188 -59.71875 7.171875 -61.75 C 9.234375 -63.78125 12.722656 -64.796875 17.640625 -64.796875 C 22.242188 -64.796875 25.585938 -63.78125 27.671875 -61.75 C 29.753906 -59.71875 30.875 -56.328125 31.03125 -51.578125 C 31.09375 -50.234375 31.109375 -48.613281 31.078125 -46.71875 C 31.046875 -44.820312 31.003906 -42.910156 30.953125 -40.984375 L 22.625 -40.984375 C 22.675781 -43.015625 22.710938 -45.03125 22.734375 -47.03125 C 22.765625 -49.039062 22.726562 -51.0625 22.625 -53.09375 C 22.507812 -56.144531 20.820312 -57.671875 17.5625 -57.671875 C 15.90625 -57.671875 14.675781 -57.296875 13.875 -56.546875 C 13.070312 -55.796875 12.617188 -54.644531 12.515625 -53.09375 C 12.347656 -51.382812 12.273438 -49.660156 12.296875 -47.921875 C 12.328125 -46.179688 12.398438 -44.457031 12.515625 -42.75 C 12.617188 -40.976562 12.953125 -39.582031 13.515625 -38.5625 C 14.078125 -37.550781 15.109375 -36.863281 16.609375 -36.5 L 21.421875 -35.375 C 25.210938 -34.457031 27.773438 -32.835938 29.109375 -30.515625 C 30.453125 -28.191406 31.203125 -25.101562 31.359375 -21.25 C 31.410156 -19.539062 31.421875 -18.070312 31.390625 -16.84375 C 31.367188 -15.613281 31.332031 -14.222656 31.28125 -12.671875 C 31.113281 -7.910156 29.988281 -4.5 27.90625 -2.4375 C 25.820312 -0.382812 22.398438 0.640625 17.640625 0.640625 Z M 17.640625 0.640625 "/></g></g></g><g clip-path="url(#d0bad9790e)"><path fill="#000000" d="M 206.734375 116.523438 L 162.660156 116.523438 L 134.152344 155.191406 C 131.449219 158.808594 127.300781 165.605469 121.660156 175.570312 L 118.011719 181.734375 L 130.980469 116.523438 L 93.4375 116.523438 L 79.804688 186.742188 L 79.960938 187.671875 L 80.945312 191.9375 C 81.535156 194.886719 82.394531 197.515625 83.203125 200.308594 L 83.511719 201.351562 L 83.867188 202.324219 L 84.59375 204.28125 C 85.0625 205.589844 85.523438 206.980469 86.113281 208.148438 C 88.242188 213.253906 90.9375 217.75 94.277344 221.488281 C 95.109375 222.464844 96.03125 223.203125 96.9375 224.132812 C 97.863281 224.902344 98.855469 225.636719 99.882812 226.390625 C 101.972656 227.667969 104.21875 228.929688 106.710938 229.601562 C 107.375 229.828125 108.046875 230.015625 108.742188 230.175781 L 111.679688 214.742188 L 120.988281 208.914062 L 126.644531 229.34375 C 131.246094 228.082031 135.84375 226.164062 140.171875 223.550781 C 136.765625 227.871094 132.738281 231.6875 128.207031 234.980469 L 137.695312 269.296875 L 179.753906 269.296875 L 153.835938 186.953125 Z M 105.878906 243.894531 C 102.222656 244.324219 98.476562 244 94.683594 243.363281 C 92.847656 242.933594 90.96875 242.464844 89.109375 241.875 C 87.351562 241.167969 85.46875 240.515625 83.746094 239.632812 C 79.199219 237.398438 74.976562 234.527344 71.148438 231.234375 L 63.761719 269.296875 L 101.300781 269.296875 L 106.144531 243.871094 C 106.046875 243.878906 105.96875 243.894531 105.878906 243.894531 Z M 74.265625 215.25 L 73.964844 216.769531 C 77.460938 220.710938 81.316406 224.261719 85.558594 227.140625 C 81.285156 223.761719 77.566406 219.667969 74.265625 215.25 " fill-opacity="1" fill-rule="nonzero"/></g><path fill="#ffffff" d="M 85.558594 227.140625 C 81.316406 224.261719 77.460938 220.710938 73.964844 216.769531 C 72.296875 214.902344 70.71875 212.945312 69.207031 210.921875 C 64.523438 204.628906 60.632812 197.621094 57.4375 190.230469 C 56.039062 186.457031 54.4375 182.730469 53.410156 178.804688 C 52.867188 176.839844 52.1875 174.921875 51.757812 172.933594 L 50.449219 166.953125 C 50.253906 165.945312 49.988281 164.964844 49.832031 163.945312 L 49.414062 160.917969 L 48.546875 154.828125 C 48.15625 150.914062 47.964844 146.988281 47.695312 143.042969 L 50.019531 142.554688 L 54.210938 148.777344 C 54.210938 150.621094 54.226562 152.457031 54.28125 154.308594 L 54.695312 160.152344 L 54.90625 163.105469 C 54.992188 164.074219 55.1875 165.035156 55.308594 166.007812 L 56.160156 171.816406 C 56.441406 173.765625 56.960938 175.636719 57.355469 177.558594 C 58.078125 181.417969 59.378906 185.097656 60.472656 188.863281 C 63.066406 196.214844 66.351562 203.324219 70.519531 209.847656 C 71.707031 211.683594 72.9375 213.488281 74.265625 215.25 C 77.566406 219.667969 81.285156 223.761719 85.558594 227.140625 " fill-opacity="1" fill-rule="nonzero"/><path fill="#f2541d" d="M 85.558594 227.140625 C 81.316406 224.261719 77.460938 220.710938 73.964844 216.769531 C 72.296875 214.902344 70.71875 212.945312 69.207031 210.921875 C 64.523438 204.628906 60.632812 197.621094 57.4375 190.230469 C 56.039062 186.457031 54.4375 182.730469 53.410156 178.804688 C 52.867188 176.839844 52.1875 174.921875 51.757812 172.933594 L 50.449219 166.953125 C 50.253906 165.945312 49.988281 164.964844 49.832031 163.945312 L 49.414062 160.917969 L 48.546875 154.828125 C 48.15625 150.914062 47.964844 146.988281 47.695312 143.042969 C 47.679688 142.886719 47.664062 142.710938 47.65625 142.554688 L 54.226562 142.554688 C 54.242188 144.628906 54.226562 146.707031 54.210938 148.777344 C 54.210938 150.621094 54.226562 152.457031 54.28125 154.308594 L 54.695312 160.152344 L 54.90625 163.105469 C 54.992188 164.074219 55.1875 165.035156 55.308594 166.007812 L 56.160156 171.816406 C 56.441406 173.765625 56.960938 175.636719 57.355469 177.558594 C 58.078125 181.417969 59.378906 185.097656 60.472656 188.863281 C 63.066406 196.214844 66.351562 203.324219 70.519531 209.847656 C 71.707031 211.683594 72.9375 213.488281 74.265625 215.25 C 77.566406 219.667969 81.285156 223.761719 85.558594 227.140625 " fill-opacity="1" fill-rule="nonzero"/><g clip-path="url(#438f06b569)"><path fill="#f2541d" d="M 53.035156 131.441406 L 53.375 122.90625 L 64.28125 124.984375 L 61.621094 119.628906 L 53.675781 117.945312 L 54.128906 109 L 50.933594 105.699219 L 47.746094 109 L 48.199219 117.945312 L 40.253906 119.628906 L 37.59375 124.984375 L 48.5 122.90625 L 48.84375 131.441406 L 45.660156 135.21875 L 45.480469 138.113281 L 50.933594 136.730469 L 56.394531 138.113281 L 56.214844 135.21875 L 53.035156 131.441406 " fill-opacity="1" fill-rule="nonzero"/></g></svg>