<svg version="1.1" id="Layer_1" xmlns="http://www.w3.org/2000/svg" xmlns:xlink="http://www.w3.org/1999/xlink" x="0px" y="0px"
	 width="100%" viewBox="0 0 500 500" enable-background="new 0 0 500 500" xml:space="preserve">
<path fill="#D23F57" opacity="1.000000" stroke="none" 
	d="
M235.000000,501.000000 
	C156.666687,501.000000 78.833374,501.000000 1.000042,501.000000 
	C1.000028,334.333405 1.000028,167.666779 1.000014,1.000131 
	C167.666565,1.000087 334.333130,1.000087 500.999756,1.000044 
	C500.999847,167.666519 500.999847,334.333038 500.999939,500.999786 
	C412.500000,501.000000 324.000000,501.000000 235.000000,501.000000 
M256.171692,156.268585 
	C254.785828,156.324127 253.399979,156.379684 251.335526,156.331253 
	C250.892792,156.441452 250.450058,156.551651 249.122391,156.331116 
	C240.564407,156.293198 231.986786,156.591309 223.455780,156.092209 
	C218.280350,155.789413 214.964890,157.447754 212.506866,162.400101 
	C212.095566,163.028931 211.684280,163.657761 210.818405,164.769699 
	C193.069611,189.121170 173.890427,212.460770 159.834717,239.424820 
	C159.413940,239.134537 158.993149,238.844238 158.572372,238.553940 
	C163.992035,211.287216 169.411697,184.020508 174.874527,156.536652 
	C158.081818,156.536652 141.686615,156.536652 125.270569,156.536652 
	C124.951721,157.620667 124.652321,158.401596 124.494316,159.210144 
	C119.686150,183.814880 114.861305,208.416443 110.117889,233.033691 
	C108.990784,238.883148 106.630959,245.012558 107.468887,250.620117 
	C109.484009,264.105743 113.547295,277.198914 121.080536,288.852844 
	C126.817528,297.727966 134.186615,304.536896 145.319595,307.027039 
	C146.550430,301.059937 147.666748,295.396088 148.895248,289.756683 
	C150.388474,282.902069 157.438019,282.990204 161.586685,278.912140 
	C164.262726,288.342041 166.742477,297.080261 169.313156,306.138885 
	C174.312805,304.326691 178.926514,302.654388 183.540222,300.982117 
	C183.762115,301.373291 183.984009,301.764465 184.205902,302.155670 
	C181.062912,305.044891 178.115112,308.194977 174.714432,310.739868 
	C172.049393,312.734222 171.348953,314.557587 172.314072,317.818817 
	C175.988129,330.233826 179.489563,342.705261 182.725098,355.240875 
	C183.527496,358.349670 184.863449,359.169830 187.835556,359.136749 
	C199.660858,359.005188 211.488449,359.080688 223.315201,359.079834 
	C228.553238,359.079468 233.791275,359.079773 239.389648,359.079773 
	C238.753860,356.620636 238.376968,354.834473 237.831390,353.101410 
	C227.467102,320.178192 217.113586,287.251465 206.652985,254.358795 
	C205.663025,251.245911 205.729141,248.883148 207.926239,246.162354 
	C213.256271,239.561844 218.240158,232.678696 223.281113,225.848633 
	C230.579041,215.960571 237.804260,206.018875 245.689774,195.849060 
	C255.336548,183.072479 264.983337,170.295914 274.630127,157.519348 
	C274.444794,157.049423 274.259460,156.579514 274.074127,156.109589 
	C268.899719,156.350128 263.725342,156.590668 258.101318,156.489685 
	C257.730469,156.474152 257.359619,156.458618 256.171692,156.268585 
M92.987694,322.584625 
	C90.563553,334.549530 88.139404,346.514465 85.641808,358.841888 
	C102.507492,358.841888 118.752602,358.841888 135.566849,358.676392 
	C135.658249,358.104279 135.749649,357.532196 136.025681,356.167755 
	C137.929596,346.218445 139.833496,336.269104 141.880859,325.570160 
	C138.737701,325.778198 136.344498,325.936584 133.520081,325.888306 
	C133.520081,325.888306 133.044067,325.933746 132.390717,325.498657 
	C121.143692,324.585083 111.393402,319.701233 101.475769,313.559296 
	C99.615288,312.090973 97.754799,310.622650 95.234917,308.633911 
	C94.533607,313.631134 93.955910,317.747589 92.987694,322.584625 
M404.446503,219.303635 
	C401.950562,219.303619 399.420105,219.567719 396.966095,219.246918 
	C392.305664,218.637695 391.127075,220.489929 391.166534,225.039536 
	C391.381500,249.830811 391.268707,274.624908 391.268707,299.418060 
	C391.268707,301.184357 391.268738,302.950653 391.268738,305.015167 
	C396.974915,305.015167 401.955536,305.025574 406.936066,305.010101 
	C408.932098,305.003906 410.939484,305.065460 412.921875,304.882141 
	C421.518646,304.087097 425.804504,300.124725 427.220459,291.613098 
	C427.600769,289.326904 427.818237,286.986847 427.828583,284.670258 
	C427.892548,270.360779 427.975647,256.050140 427.861053,241.741425 
	C427.715668,223.592758 423.406586,219.369781 404.446503,219.303635 
M309.875427,305.652039 
	C319.000458,303.576416 322.786743,300.096100 322.954712,291.283051 
	C323.325958,271.805878 323.292816,252.310806 322.831268,232.837112 
	C322.746033,229.241043 320.803619,224.546646 318.099457,222.378052 
	C311.143311,216.799698 302.696259,217.541443 294.802246,220.402618 
	C288.180145,222.802765 286.869354,228.983749 286.830719,235.230728 
	C286.719482,253.221848 286.563843,271.218018 286.874237,289.204498 
	C287.076813,300.943665 292.330109,305.709351 304.013977,305.918732 
	C305.677094,305.948547 307.342896,305.829010 309.875427,305.652039 
M348.568024,219.843506 
	C340.790497,222.422516 339.289703,228.938248 339.199524,235.801331 
	C338.970093,253.262894 338.956146,270.731384 339.167908,288.193329 
	C339.321259,300.839417 344.784515,305.953918 357.436554,305.890930 
	C359.906891,305.878632 362.403717,305.521118 364.837921,305.057922 
	C370.321472,304.014465 373.650726,300.525635 374.863220,295.202423 
	C375.522064,292.309875 375.871063,289.286560 375.891785,286.319000 
	C375.998657,271.017548 376.026642,255.714661 375.943481,240.413040 
	C375.842438,221.817596 369.277069,216.331451 350.750153,219.162933 
	C350.262390,219.237457 349.793671,219.436584 348.568024,219.843506 
M449.151917,221.512222 
	C447.438782,224.460312 444.561462,227.288559 444.243195,230.380219 
	C443.465607,237.934387 443.496552,245.630798 443.910370,253.231384 
	C444.297882,260.347778 448.666138,264.492310 455.549622,266.443207 
	C468.445740,270.098206 468.696106,270.604187 468.607178,284.302704 
	C468.596405,285.964386 468.473572,287.631042 468.301300,289.284851 
	C467.729614,294.773254 466.104675,296.269196 461.245575,296.159271 
	C456.476685,296.051331 454.902039,293.238007 454.892700,288.990997 
	C454.881500,283.905670 454.890045,278.820282 454.890045,273.547791 
	C450.881683,273.547791 447.614929,273.547791 443.857269,273.547791 
	C443.857269,279.568390 443.478058,285.382141 443.941650,291.127869 
	C444.737946,300.997253 449.523224,305.379822 459.398224,305.857544 
	C462.038391,305.985260 464.729279,305.807098 467.350464,305.438995 
	C474.076965,304.494385 478.282837,300.639130 479.245880,293.869354 
	C479.852112,289.607635 480.048248,285.259857 480.076019,280.948425 
	C480.185486,263.949615 477.964478,260.963165 461.615723,256.639282 
	C457.416351,255.528656 455.271423,253.113159 455.103607,248.996429 
	C454.907074,244.175690 454.931000,239.340881 455.019928,234.515137 
	C455.098907,230.230545 457.560577,228.135849 461.726776,228.181320 
	C465.883484,228.226685 468.258881,230.291626 468.257233,234.648605 
	C468.255341,239.631287 468.256805,244.613968 468.256805,249.993439 
	C472.176422,249.993439 475.731140,249.993439 480.095245,249.993439 
	C479.712402,243.193008 479.661499,236.723511 478.896362,230.339615 
	C478.198700,224.519043 474.641113,220.510880 468.793579,219.343430 
	C462.356049,218.058212 455.875214,217.910721 449.151917,221.512222 
M247.391464,263.501007 
	C247.556335,254.177902 247.675507,244.853668 247.904099,235.532120 
	C248.031067,230.354477 250.188248,228.019958 254.587463,228.158890 
	C259.235291,228.305634 260.942596,231.164215 260.965759,235.410187 
	C260.991974,240.219559 260.971802,245.029175 260.971802,250.093735 
	C264.918243,250.093735 268.499512,250.093735 273.398132,250.093735 
	C272.592987,242.499374 272.370758,235.212128 270.817200,228.220703 
	C270.165710,225.288696 267.203644,221.994797 264.418854,220.559113 
	C250.082611,213.168289 236.462860,221.195892 236.169922,237.123199 
	C235.879044,252.936874 236.060455,268.759644 236.086426,284.578339 
	C236.090515,287.067322 236.161591,289.589111 236.556061,292.038696 
	C238.077316,301.485657 242.327957,305.364777 251.904495,305.822449 
	C255.025269,305.971619 258.215393,305.617859 261.312164,305.114746 
	C267.024506,304.186646 271.050262,300.590057 271.708588,295.058716 
	C272.836090,285.585602 272.957367,275.992676 273.510834,266.280945 
	C266.768890,266.280945 261.184998,266.280945 255.337952,266.280945 
	C255.337952,269.624329 255.337952,272.713318 255.337952,275.781616 
	C261.797150,276.690369 261.820312,276.690521 261.772888,283.477142 
	C261.757782,285.638489 261.621521,287.801300 261.474731,289.958954 
	C261.164124,294.526093 258.533386,296.315308 254.142273,296.171875 
	C249.737015,296.027954 247.948868,293.652649 247.885727,289.473541 
	C247.759964,281.148926 247.562683,272.825439 247.391464,263.501007 
M86.862808,272.677765 
	C90.958076,278.446289 95.053337,284.214783 99.148605,289.983307 
	C99.690681,289.751495 100.232758,289.519714 100.774841,289.287903 
	C79.124313,260.017517 72.074890,226.704330 73.007774,191.167099 
	C69.926613,191.167099 67.369377,191.167099 64.453209,191.167099 
	C65.423973,220.111206 71.581131,247.259766 86.862808,272.677765 
M81.590385,166.774948 
	C82.884552,166.860382 84.178726,166.945816 85.597740,167.039505 
	C84.728416,162.041229 82.153923,159.262909 77.247993,159.184128 
	C73.013893,159.116135 71.839020,157.011520 72.512108,153.073532 
	C73.230240,148.872009 73.495667,144.660782 68.594185,142.524658 
	C64.461647,144.303329 64.049286,147.774094 64.757652,151.630997 
	C65.619255,156.322189 64.591469,159.350662 59.017456,159.429108 
	C54.432060,159.493622 52.554253,162.534271 51.805523,167.243866 
	C56.340923,166.481003 60.511887,165.779449 64.543045,165.101410 
	C68.721947,172.384857 63.419514,178.175964 61.246361,183.961288 
	C66.666740,183.961288 71.253845,183.961288 76.685341,183.961288 
	C74.880653,180.985886 72.451050,178.427841 71.770424,175.467651 
	C71.028641,172.241470 71.908745,168.642395 72.096794,164.908157 
	C75.303619,165.480301 78.059235,165.971939 81.590385,166.774948 
z"/>
<path fill="#020101" opacity="1.000000" stroke="none" 
	d="
M245.060501,196.100067 
	C237.804260,206.018875 230.579041,215.960571 223.281113,225.848633 
	C218.240158,232.678696 213.256271,239.561844 207.926239,246.162354 
	C205.729141,248.883148 205.663025,251.245911 206.652985,254.358795 
	C217.113586,287.251465 227.467102,320.178192 237.831390,353.101410 
	C238.376968,354.834473 238.753860,356.620636 239.389648,359.079773 
	C233.791275,359.079773 228.553238,359.079468 223.315201,359.079834 
	C211.488449,359.080688 199.660858,359.005188 187.835556,359.136749 
	C184.863449,359.169830 183.527496,358.349670 182.725098,355.240875 
	C179.489563,342.705261 175.988129,330.233826 172.314072,317.818817 
	C171.348953,314.557587 172.049393,312.734222 174.714432,310.739868 
	C178.115112,308.194977 181.062912,305.044891 184.205902,302.155670 
	C183.984009,301.764465 183.762115,301.373291 183.540222,300.982117 
	C178.926514,302.654388 174.312805,304.326691 169.313156,306.138885 
	C166.742477,297.080261 164.262726,288.342041 161.586685,278.912140 
	C157.438019,282.990204 150.388474,282.902069 148.895248,289.756683 
	C147.666748,295.396088 146.550430,301.059937 145.319595,307.027039 
	C134.186615,304.536896 126.817528,297.727966 121.080536,288.852844 
	C113.547295,277.198914 109.484009,264.105743 107.468887,250.620117 
	C106.630959,245.012558 108.990784,238.883148 110.117889,233.033691 
	C114.861305,208.416443 119.686150,183.814880 124.494316,159.210144 
	C124.652321,158.401596 124.951721,157.620667 125.270569,156.536652 
	C141.686615,156.536652 158.081818,156.536652 174.874527,156.536652 
	C169.411697,184.020508 163.992035,211.287216 158.572372,238.553940 
	C158.993149,238.844238 159.413940,239.134537 159.834717,239.424820 
	C173.890427,212.460770 193.069611,189.121170 211.536392,164.683411 
	C212.927933,164.742615 213.601471,164.888092 214.462173,165.180023 
	C215.086517,165.782913 215.523697,166.239349 216.096100,166.947510 
	C216.492020,167.470673 216.752747,167.742157 217.006256,168.007294 
	C216.999039,168.000961 216.986374,167.986496 217.168488,168.202225 
	C217.666794,168.625107 217.983017,168.832245 218.483887,169.186920 
	C219.098923,169.792587 219.529312,170.250763 220.096771,170.957703 
	C220.493988,171.475784 220.754120,171.745117 221.006714,172.007629 
	C220.999191,172.000809 220.986267,171.985123 221.127533,172.186005 
	C221.482513,172.639694 221.732254,172.849609 222.009781,173.007980 
	C222.001541,172.999298 221.989563,172.978607 222.056122,173.262573 
	C222.421921,174.043228 222.721161,174.539932 223.005981,175.022568 
	C222.991562,175.008499 222.963348,174.979736 223.191010,175.162735 
	C223.952240,175.566940 224.485809,175.788147 225.009949,176.004211 
	C225.000488,175.999054 224.985123,175.983932 225.125732,176.184753 
	C225.478943,176.638657 225.728348,176.847900 226.006866,177.007050 
	C225.999222,177.000809 225.985962,176.986176 226.168121,177.201324 
	C226.665512,177.624237 226.980713,177.831985 227.480560,178.186096 
	C228.097107,178.786606 228.529007,179.240738 229.095718,179.946960 
	C229.491440,180.470459 229.752365,180.741913 230.006256,181.007080 
	C229.999207,181.000778 229.987305,180.986069 230.127045,181.188477 
	C230.480164,181.645035 230.731125,181.854126 231.010498,182.010956 
	C231.001373,182.003784 230.984299,181.988037 231.088867,182.271576 
	C231.799652,183.041946 232.405838,183.528793 233.004120,184.007141 
	C232.996201,183.998657 232.981796,183.980453 233.121948,184.182617 
	C233.474747,184.639603 233.725403,184.848938 234.006714,185.006683 
	C233.999374,185.000610 233.987198,184.985977 234.126663,185.187531 
	C234.478760,185.642349 234.728714,185.850876 235.007675,186.007782 
	C234.999374,186.000900 234.984818,185.985001 235.165894,186.196457 
	C235.654160,186.619217 235.961334,186.830521 236.389114,187.151047 
	C236.666992,187.410049 236.816406,187.567245 237.099030,187.974854 
	C237.498489,188.483643 237.756851,188.749496 238.007172,189.007996 
	C237.999115,189.000641 237.985107,188.983902 238.124939,189.185303 
	C238.476990,189.640442 238.726807,189.849182 239.006714,190.006882 
	C238.999207,190.000809 238.986282,189.986511 239.170349,190.202881 
	C239.674225,190.625519 239.994019,190.831772 240.495651,191.184509 
	C241.105804,191.781067 241.534103,192.231140 242.095657,192.936127 
	C242.490280,193.465057 242.751648,193.739090 243.006027,194.007034 
	C242.999039,194.000961 242.986862,193.987015 243.171967,194.204651 
	C243.680435,194.627045 244.003815,194.831802 244.457092,195.208450 
	C244.754944,195.613602 244.912781,195.853500 245.060501,196.100067 
M172.754990,257.144531 
	C173.144974,257.192291 173.534943,257.240082 174.256332,257.933838 
	C175.621094,257.341400 176.985870,256.748932 178.212891,255.959824 
	C178.212891,255.959824 178.003479,256.077332 178.714127,255.875534 
	C178.838684,255.422821 178.963242,254.970108 179.124161,254.660477 
	C179.124161,254.660477 179.269501,254.634613 179.997421,254.584366 
	C183.411331,256.416382 186.825241,258.248383 190.347260,260.138397 
	C190.692352,257.202484 190.624802,254.723007 191.333344,252.489761 
	C192.311890,249.405441 190.647339,248.800644 188.426468,248.974503 
	C186.705551,249.109207 185.041367,249.968857 183.332336,250.512512 
	C180.709213,245.717712 180.084290,245.647202 176.663376,249.547089 
	C176.663376,249.547089 176.202957,249.357773 175.563736,249.086395 
	C174.509308,251.313492 173.454880,253.540588 172.030746,255.845917 
	C171.791199,255.943573 171.592819,256.095093 171.177277,256.400269 
	C171.177277,256.400269 171.061905,256.653717 170.478317,256.595215 
	C170.478317,254.135361 170.478317,251.675491 170.478317,249.417084 
	C168.103134,249.417084 165.770081,249.417084 163.511444,249.417084 
	C162.467621,251.693863 161.414963,253.989883 160.362305,256.285919 
	C159.219696,254.845596 159.105865,253.861679 159.240097,252.912888 
	C159.727982,249.464645 158.070389,247.766785 155.029053,249.165421 
	C153.398056,249.915512 152.212463,251.767700 151.007034,253.268082 
	C150.005356,254.514877 149.268463,255.974365 147.782623,257.673248 
	C141.906693,259.869232 137.574066,256.665802 139.296509,250.644211 
	C140.493973,246.457916 143.687012,242.842453 146.810623,238.972275 
	C151.926682,239.974503 147.956299,243.607513 149.439804,246.105087 
	C150.715836,244.284027 152.311386,241.718948 151.598770,240.431656 
	C150.769043,238.932877 147.919220,238.552429 145.231155,237.810577 
	C139.346863,240.483154 136.237854,245.356689 136.188049,251.505722 
	C136.164932,254.357269 137.734924,258.069733 139.866196,259.884674 
	C142.793808,262.377716 146.427505,260.904541 149.887604,257.918121 
	C155.800461,257.868927 162.568665,260.980377 166.231506,252.770203 
	C167.643524,255.251984 165.884644,260.055298 171.487274,257.888977 
	C171.711700,257.652496 171.936142,257.416046 172.754990,257.144531 
z"/>
<path fill="#FEF9FA" opacity="1.000000" stroke="none" 
	d="
M404.929321,219.303772 
	C423.406586,219.369781 427.715668,223.592758 427.861053,241.741425 
	C427.975647,256.050140 427.892548,270.360779 427.828583,284.670258 
	C427.818237,286.986847 427.600769,289.326904 427.220459,291.613098 
	C425.804504,300.124725 421.518646,304.087097 412.921875,304.882141 
	C410.939484,305.065460 408.932098,305.003906 406.936066,305.010101 
	C401.955536,305.025574 396.974915,305.015167 391.268738,305.015167 
	C391.268738,302.950653 391.268707,301.184357 391.268707,299.418060 
	C391.268707,274.624908 391.381500,249.830811 391.166534,225.039536 
	C391.127075,220.489929 392.305664,218.637695 396.966095,219.246918 
	C399.420105,219.567719 401.950562,219.303619 404.929321,219.303772 
M403.077087,243.510468 
	C403.077087,260.436310 403.077087,277.362152 403.077087,294.189453 
	C412.462616,295.533447 415.933044,293.911926 415.986816,287.981110 
	C416.142212,270.832489 416.052673,253.681564 416.033447,236.531586 
	C416.028351,232.000961 413.631439,229.845245 409.162354,229.864975 
	C407.245422,229.873444 405.328430,229.866379 403.077087,229.866379 
	C403.077087,234.570587 403.077087,238.542755 403.077087,243.510468 
z"/>
<path fill="#FEFAFB" opacity="1.000000" stroke="none" 
	d="
M309.441467,305.715302 
	C307.342896,305.829010 305.677094,305.948547 304.013977,305.918732 
	C292.330109,305.709351 287.076813,300.943665 286.874237,289.204498 
	C286.563843,271.218018 286.719482,253.221848 286.830719,235.230728 
	C286.869354,228.983749 288.180145,222.802765 294.802246,220.402618 
	C302.696259,217.541443 311.143311,216.799698 318.099457,222.378052 
	C320.803619,224.546646 322.746033,229.241043 322.831268,232.837112 
	C323.292816,252.310806 323.325958,271.805878 322.954712,291.283051 
	C322.786743,300.096100 319.000458,303.576416 309.441467,305.715302 
M297.937958,257.500000 
	C298.040558,267.984222 298.036987,278.471008 298.289246,288.951630 
	C298.421082,294.428497 300.280060,296.179993 305.043060,296.162567 
	C309.753998,296.145325 311.733673,294.303375 311.771576,288.885956 
	C311.896210,271.079559 311.882629,253.271271 311.766266,235.464737 
	C311.732391,230.281464 309.479156,228.124878 304.975281,228.141434 
	C300.462494,228.158020 298.450867,230.212006 298.270905,235.533798 
	C298.034729,242.518311 298.037811,249.510910 297.937958,257.500000 
z"/>
<path fill="#FEFBFB" opacity="1.000000" stroke="none" 
	d="
M348.942047,219.710556 
	C349.793671,219.436584 350.262390,219.237457 350.750153,219.162933 
	C369.277069,216.331451 375.842438,221.817596 375.943481,240.413040 
	C376.026642,255.714661 375.998657,271.017548 375.891785,286.319000 
	C375.871063,289.286560 375.522064,292.309875 374.863220,295.202423 
	C373.650726,300.525635 370.321472,304.014465 364.837921,305.057922 
	C362.403717,305.521118 359.906891,305.878632 357.436554,305.890930 
	C344.784515,305.953918 339.321259,300.839417 339.167908,288.193329 
	C338.956146,270.731384 338.970093,253.262894 339.199524,235.801331 
	C339.289703,228.938248 340.790497,222.422516 348.942047,219.710556 
M350.736053,240.308563 
	C350.780884,256.630432 350.856537,272.952332 350.850311,289.274200 
	C350.848602,293.736572 352.706482,296.180664 357.361725,296.189301 
	C362.014679,296.197937 364.093719,294.445557 364.120544,289.563202 
	C364.221283,271.241760 364.141907,252.919373 364.158844,234.597366 
	C364.162933,230.173157 361.716553,228.196304 357.610474,228.165375 
	C353.569458,228.134933 350.889465,229.880173 350.885742,234.387833 
	C350.884369,236.053162 350.803192,237.718430 350.736053,240.308563 
z"/>
<path fill="#FEF9FA" opacity="1.000000" stroke="none" 
	d="
M449.466064,221.305786 
	C455.875214,217.910721 462.356049,218.058212 468.793579,219.343430 
	C474.641113,220.510880 478.198700,224.519043 478.896362,230.339615 
	C479.661499,236.723511 479.712402,243.193008 480.095245,249.993439 
	C475.731140,249.993439 472.176422,249.993439 468.256805,249.993439 
	C468.256805,244.613968 468.255341,239.631287 468.257233,234.648605 
	C468.258881,230.291626 465.883484,228.226685 461.726776,228.181320 
	C457.560577,228.135849 455.098907,230.230545 455.019928,234.515137 
	C454.931000,239.340881 454.907074,244.175690 455.103607,248.996429 
	C455.271423,253.113159 457.416351,255.528656 461.615723,256.639282 
	C477.964478,260.963165 480.185486,263.949615 480.076019,280.948425 
	C480.048248,285.259857 479.852112,289.607635 479.245880,293.869354 
	C478.282837,300.639130 474.076965,304.494385 467.350464,305.438995 
	C464.729279,305.807098 462.038391,305.985260 459.398224,305.857544 
	C449.523224,305.379822 444.737946,300.997253 443.941650,291.127869 
	C443.478058,285.382141 443.857269,279.568390 443.857269,273.547791 
	C447.614929,273.547791 450.881683,273.547791 454.890045,273.547791 
	C454.890045,278.820282 454.881500,283.905670 454.892700,288.990997 
	C454.902039,293.238007 456.476685,296.051331 461.245575,296.159271 
	C466.104675,296.269196 467.729614,294.773254 468.301300,289.284851 
	C468.473572,287.631042 468.596405,285.964386 468.607178,284.302704 
	C468.696106,270.604187 468.445740,270.098206 455.549622,266.443207 
	C448.666138,264.492310 444.297882,260.347778 443.910370,253.231384 
	C443.496552,245.630798 443.465607,237.934387 444.243195,230.380219 
	C444.561462,227.288559 447.438782,224.460312 449.466064,221.305786 
z"/>
<path fill="#FEFBFB" opacity="1.000000" stroke="none" 
	d="
M247.393204,264.001221 
	C247.562683,272.825439 247.759964,281.148926 247.885727,289.473541 
	C247.948868,293.652649 249.737015,296.027954 254.142273,296.171875 
	C258.533386,296.315308 261.164124,294.526093 261.474731,289.958954 
	C261.621521,287.801300 261.757782,285.638489 261.772888,283.477142 
	C261.820312,276.690521 261.797150,276.690369 255.337952,275.781616 
	C255.337952,272.713318 255.337952,269.624329 255.337952,266.280945 
	C261.184998,266.280945 266.768890,266.280945 273.510834,266.280945 
	C272.957367,275.992676 272.836090,285.585602 271.708588,295.058716 
	C271.050262,300.590057 267.024506,304.186646 261.312164,305.114746 
	C258.215393,305.617859 255.025269,305.971619 251.904495,305.822449 
	C242.327957,305.364777 238.077316,301.485657 236.556061,292.038696 
	C236.161591,289.589111 236.090515,287.067322 236.086426,284.578339 
	C236.060455,268.759644 235.879044,252.936874 236.169922,237.123199 
	C236.462860,221.195892 250.082611,213.168289 264.418854,220.559113 
	C267.203644,221.994797 270.165710,225.288696 270.817200,228.220703 
	C272.370758,235.212128 272.592987,242.499374 273.398132,250.093735 
	C268.499512,250.093735 264.918243,250.093735 260.971802,250.093735 
	C260.971802,245.029175 260.991974,240.219559 260.965759,235.410187 
	C260.942596,231.164215 259.235291,228.305634 254.587463,228.158890 
	C250.188248,228.019958 248.031067,230.354477 247.904099,235.532120 
	C247.675507,244.853668 247.556335,254.177902 247.393204,264.001221 
z"/>
<path fill="#010101" opacity="1.000000" stroke="none" 
	d="
M101.943497,314.020569 
	C111.393402,319.701233 121.143692,324.585083 132.814056,325.796051 
	C133.237396,326.093445 133.592484,326.185425 133.592484,326.185425 
	C133.592484,326.185425 133.951279,326.095001 133.951279,326.095001 
	C136.344498,325.936584 138.737701,325.778198 141.880859,325.570160 
	C139.833496,336.269104 137.929596,346.218445 135.730194,356.562378 
	C135.434723,356.956970 135.028412,356.960632 134.889984,356.770569 
	C134.545639,356.339661 134.307037,356.137390 133.893600,355.783447 
	C133.541122,355.353760 133.301773,355.148041 132.883453,354.790955 
	C132.515625,354.372040 132.271637,354.169678 131.857666,353.810730 
	C131.504715,353.383545 131.268906,353.174652 130.870850,352.802216 
	C130.534592,352.362854 130.303986,352.149384 129.901123,351.778198 
	C129.548218,351.349274 129.309830,351.142487 128.892914,350.782501 
	C128.522736,350.363464 128.276031,350.163269 127.856934,349.809357 
	C127.500916,349.384277 127.263367,349.177032 126.861206,348.808838 
	C126.521484,348.373169 126.291222,348.159760 125.889511,347.787781 
	C125.536407,347.359558 125.299095,347.151794 124.889328,346.787231 
	C124.531807,346.361572 124.291801,346.156281 123.994171,345.936890 
	C123.964165,345.890564 123.978615,346.031281 124.114357,346.226990 
	C124.452911,346.672424 124.692200,346.880127 125.106781,347.238556 
	C125.451569,347.677490 125.693123,347.881592 126.116325,348.228577 
	C126.479179,348.645691 126.725281,348.840759 127.141342,349.190002 
	C127.489586,349.623322 127.727592,349.830444 128.126801,350.204163 
	C128.451553,350.665344 128.684708,350.883057 129.094727,351.252563 
	C129.436691,351.695099 129.678543,351.899384 130.104065,352.244385 
	C130.467697,352.662079 130.716125,352.854645 131.137924,353.196899 
	C131.489899,353.626678 131.729355,353.832001 132.133057,354.200317 
	C132.465088,354.652771 132.698990,354.867950 133.105499,355.238525 
	C133.446381,355.681641 133.688370,355.885437 134.099548,356.239624 
	C134.433151,356.680359 134.672852,356.881134 134.942871,357.338013 
	C134.956223,358.040100 134.976974,358.440979 134.997711,358.841888 
	C118.752602,358.841888 102.507492,358.841888 85.641808,358.841888 
	C88.139404,346.514465 90.563553,334.549530 93.431473,322.050659 
	C96.564667,319.017975 99.254082,316.519287 101.943497,314.020569 
z"/>
<path fill="#010101" opacity="1.000000" stroke="none" 
	d="
M219.959686,170.708923 
	C219.529312,170.250763 219.098923,169.792587 218.273132,168.997070 
	C217.580612,168.435303 217.283493,168.210907 216.986374,167.986496 
	C216.986374,167.986496 216.999039,168.000961 216.850647,167.774170 
	C216.455124,167.263535 216.208008,166.979675 215.960892,166.695801 
	C215.523697,166.239349 215.086517,165.782913 214.284882,164.901886 
	C213.604355,163.678589 213.288254,162.879852 212.972153,162.081131 
	C214.964890,157.447754 218.280350,155.789413 223.455780,156.092209 
	C231.986786,156.591309 240.564407,156.293198 249.701477,156.695160 
	C250.820969,157.386520 251.361343,157.713837 252.018982,158.344315 
	C255.191025,162.570358 256.064362,159.517349 257.313110,157.059067 
	C257.846497,156.965637 258.198730,156.898422 258.550934,156.831207 
	C263.725342,156.590668 268.899719,156.350128 274.074127,156.109589 
	C274.259460,156.579514 274.444794,157.049423 274.630127,157.519348 
	C264.983337,170.295914 255.336548,183.072479 245.375137,195.974564 
	C244.912781,195.853500 244.754944,195.613602 244.240845,195.019577 
	C243.592087,194.434875 243.289474,194.210938 242.986862,193.987015 
	C242.986862,193.987015 242.999039,194.000961 242.851395,193.771332 
	C242.456635,193.254883 242.209518,192.968048 241.962402,192.681213 
	C241.534103,192.231140 241.105804,191.781067 240.281677,190.995422 
	C239.585999,190.435394 239.286148,190.210953 238.986282,189.986511 
	C238.986282,189.986511 238.999207,190.000809 238.862045,189.809845 
	C238.510315,189.369934 238.263718,189.158264 237.985107,188.983902 
	C237.985107,188.983902 237.999115,189.000641 237.848328,188.781860 
	C237.451019,188.286026 237.204498,188.008972 236.957962,187.731903 
	C236.816406,187.567245 236.666992,187.410049 236.182343,186.962189 
	C235.564911,186.437744 235.274857,186.211380 234.984818,185.985001 
	C234.984818,185.985001 234.999374,186.000900 234.863007,185.810822 
	C234.512650,185.371292 234.266174,185.159714 233.987198,184.985977 
	C233.987198,184.985977 233.999374,185.000610 233.861694,184.808990 
	C233.508575,184.367828 233.261169,184.155518 232.981796,183.980453 
	C232.981796,183.980453 232.996201,183.998657 233.045593,183.734589 
	C233.127884,183.289749 233.160782,183.108963 233.371185,182.775909 
	C233.719559,182.067841 233.890427,181.512039 234.061310,180.956238 
	C233.398422,181.238861 232.735535,181.521484 231.801239,181.854126 
	C231.347992,181.932114 231.166138,181.960068 230.984299,181.988037 
	C230.984299,181.988037 231.001373,182.003784 230.865341,181.813263 
	C230.514832,181.372238 230.267502,181.160019 229.987305,180.986069 
	C229.987305,180.986069 229.999207,181.000778 229.851181,180.773483 
	C229.455750,180.262421 229.208344,179.978653 228.960922,179.694885 
	C228.529007,179.240738 228.097107,178.786606 227.270172,177.996323 
	C226.578751,177.435516 226.282349,177.210846 225.985962,176.986176 
	C225.985962,176.986176 225.999222,177.000809 225.861481,176.810593 
	C225.508911,176.371826 225.262695,176.159683 224.985123,175.983932 
	C224.985123,175.983932 225.000488,175.999054 224.790924,175.810974 
	C224.042038,175.408508 223.502686,175.194122 222.963348,174.979736 
	C222.963348,174.979736 222.991562,175.008499 222.935822,174.738159 
	C222.583252,173.971405 222.286407,173.475006 221.989563,172.978607 
	C221.989563,172.978607 222.001541,172.999298 221.863464,172.811539 
	C221.510254,172.374725 221.263885,172.161850 220.986267,171.985123 
	C220.986267,171.985123 220.999191,172.000809 220.850250,171.776703 
	C220.454117,171.271378 220.206894,170.990143 219.959686,170.708923 
M251.077728,164.823456 
	C250.933197,164.490646 250.788666,164.157837 250.644135,163.825027 
	C250.364609,164.104385 250.085068,164.383759 249.805542,164.663116 
	C250.139725,164.806061 250.473907,164.948990 251.077728,164.823456 
M236.789841,177.513321 
	C237.091782,177.712799 237.393723,177.912277 237.695663,178.111771 
	C237.820618,177.743683 237.945587,177.375610 238.070557,177.007523 
	C237.688614,177.062393 237.306671,177.117264 236.789841,177.513321 
M245.781311,169.057709 
	C245.899811,168.975677 246.018295,168.893631 246.136795,168.811600 
	C246.021347,168.834381 245.905884,168.857162 245.781311,169.057709 
z"/>
<path fill="#FAF6F6" opacity="1.000000" stroke="none" 
	d="
M86.664825,272.370667 
	C71.581131,247.259766 65.423973,220.111206 64.453209,191.167099 
	C67.369377,191.167099 69.926613,191.167099 73.007774,191.167099 
	C72.074890,226.704330 79.124313,260.017517 100.774841,289.287903 
	C100.232758,289.519714 99.690681,289.751495 99.148605,289.983307 
	C95.053337,284.214783 90.958076,278.446289 86.664825,272.370667 
z"/>
<path fill="#FCF6F7" opacity="1.000000" stroke="none" 
	d="
M81.202621,166.619263 
	C78.059235,165.971939 75.303619,165.480301 72.096794,164.908157 
	C71.908745,168.642395 71.028641,172.241470 71.770424,175.467651 
	C72.451050,178.427841 74.880653,180.985886 76.685341,183.961288 
	C71.253845,183.961288 66.666740,183.961288 61.246361,183.961288 
	C63.419514,178.175964 68.721947,172.384857 64.543045,165.101410 
	C60.511887,165.779449 56.340923,166.481003 51.805523,167.243866 
	C52.554253,162.534271 54.432060,159.493622 59.017456,159.429108 
	C64.591469,159.350662 65.619255,156.322189 64.757652,151.630997 
	C64.049286,147.774094 64.461647,144.303329 68.594185,142.524658 
	C73.495667,144.660782 73.230240,148.872009 72.512108,153.073532 
	C71.839020,157.011520 73.013893,159.116135 77.247993,159.184128 
	C82.153923,159.262909 84.728416,162.041229 85.597740,167.039505 
	C84.178726,166.945816 82.884552,166.860382 81.202621,166.619263 
z"/>
<path fill="#040202" opacity="1.000000" stroke="none" 
	d="
M101.709633,313.789917 
	C99.254082,316.519287 96.564667,319.017975 93.626724,321.690369 
	C93.955910,317.747589 94.533607,313.631134 95.234917,308.633911 
	C97.754799,310.622650 99.615288,312.090973 101.709633,313.789917 
z"/>
<path fill="#050202" opacity="1.000000" stroke="none" 
	d="
M257.131897,157.085281 
	C256.064362,159.517349 255.191025,162.570358 252.050537,158.077255 
	C251.981247,157.149765 251.997681,156.792496 252.014114,156.435242 
	C253.399979,156.379684 254.785828,156.324127 256.610291,156.517654 
	C257.048920,156.766724 257.131897,157.085281 257.131897,157.085281 
z"/>
<path fill="#1C1A1A" opacity="1.000000" stroke="none" 
	d="
M212.739502,162.240616 
	C213.288254,162.879852 213.604355,163.678589 214.097748,164.755432 
	C213.601471,164.888092 212.927933,164.742615 211.763687,164.441864 
	C211.684280,163.657761 212.095566,163.028931 212.739502,162.240616 
z"/>
<path fill="#080203" opacity="1.000000" stroke="none" 
	d="
M251.674820,156.383240 
	C251.997681,156.792496 251.981247,157.149765 251.933273,157.774094 
	C251.361343,157.713837 250.820969,157.386520 250.143951,156.860535 
	C250.450058,156.551651 250.892792,156.441452 251.674820,156.383240 
z"/>
<path fill="#080203" opacity="1.000000" stroke="none" 
	d="
M257.313110,157.059067 
	C257.131897,157.085281 257.048920,156.766724 257.018860,156.604904 
	C257.359619,156.458618 257.730469,156.474152 258.326111,156.660446 
	C258.198730,156.898422 257.846497,156.965637 257.313110,157.059067 
z"/>
<path fill="#1C1A1A" opacity="1.000000" stroke="none" 
	d="
M135.028412,356.960632 
	C135.028412,356.960632 135.434723,356.956970 135.637894,356.958527 
	C135.749649,357.532196 135.658249,358.104279 135.282288,358.759155 
	C134.976974,358.440979 134.956223,358.040100 134.963547,357.320129 
	C134.991623,357.001038 135.028412,356.960632 135.028412,356.960632 
z"/>
<path fill="#040202" opacity="1.000000" stroke="none" 
	d="
M133.735687,325.991638 
	C133.951279,326.095001 133.592484,326.185425 133.592484,326.185425 
	C133.592484,326.185425 133.237396,326.093445 133.140732,326.013611 
	C133.044067,325.933746 133.520081,325.888306 133.735687,325.991638 
z"/>
<path fill="#737373" opacity="1.000000" stroke="none" 
	d="
M148.414276,257.339630 
	C149.268463,255.974365 150.005356,254.514877 151.007034,253.268082 
	C152.212463,251.767700 153.398056,249.915512 155.029053,249.165421 
	C158.070389,247.766785 159.727982,249.464645 159.240097,252.912888 
	C159.105865,253.861679 159.219696,254.845596 160.362305,256.285919 
	C161.414963,253.989883 162.467621,251.693863 163.511444,249.417084 
	C165.770081,249.417084 168.103134,249.417084 170.478317,249.417084 
	C170.478317,251.675491 170.478317,254.135361 170.749680,256.939148 
	C171.009415,257.492767 170.997772,257.702423 170.986115,257.912109 
	C165.884644,260.055298 167.643524,255.251984 166.231506,252.770203 
	C162.568665,260.980377 155.800461,257.868927 149.338165,257.837463 
	C148.663910,257.617798 148.539093,257.478729 148.414276,257.339630 
z"/>
<path fill="#707070" opacity="1.000000" stroke="none" 
	d="
M178.350632,256.156494 
	C176.985870,256.748932 175.621094,257.341400 173.873627,257.322174 
	C173.127426,256.396240 172.763931,256.081940 172.400452,255.767670 
	C173.454880,253.540588 174.509308,251.313492 175.919098,249.371613 
	C176.274460,249.656845 176.595505,249.939651 176.595505,249.939651 
	C176.595505,249.939651 177.027267,249.886810 177.027267,249.886810 
	C180.084290,245.647202 180.709213,245.717712 183.332336,250.512512 
	C185.041367,249.968857 186.705551,249.109207 188.426468,248.974503 
	C190.647339,248.800644 192.311890,249.405441 191.333344,252.489761 
	C190.624802,254.723007 190.692352,257.202484 190.347260,260.138397 
	C186.825241,258.248383 183.411331,256.416382 179.397491,254.383957 
	C177.870102,254.204819 176.942657,254.226074 176.015198,254.247330 
	C176.793686,254.883713 177.572159,255.520096 178.350632,256.156494 
M182.907211,251.402496 
	C182.695023,251.384918 182.482849,251.367355 182.270645,251.349792 
	C182.367615,251.466049 182.464584,251.582306 182.907211,251.402496 
z"/>
<path fill="#737373" opacity="1.000000" stroke="none" 
	d="
M145.988556,238.971970 
	C143.687012,242.842453 140.493973,246.457916 139.296509,250.644211 
	C137.574066,256.665802 141.906693,259.869232 148.098450,257.506439 
	C148.539093,257.478729 148.663910,257.617798 148.975067,257.966217 
	C146.427505,260.904541 142.793808,262.377716 139.866196,259.884674 
	C137.734924,258.069733 136.164932,254.357269 136.188049,251.505722 
	C136.237854,245.356689 139.346863,240.483154 145.598267,238.069992 
	C145.973114,238.543579 145.980835,238.757767 145.988556,238.971970 
z"/>
<path fill="#666666" opacity="1.000000" stroke="none" 
	d="
M146.399597,238.972122 
	C145.980835,238.757767 145.973114,238.543579 145.955719,238.008026 
	C147.919220,238.552429 150.769043,238.932877 151.598770,240.431656 
	C152.311386,241.718948 150.715836,244.284027 149.439804,246.105087 
	C147.956299,243.607513 151.926682,239.974503 146.399597,238.972122 
z"/>
<path fill="#666666" opacity="1.000000" stroke="none" 
	d="
M178.281769,256.058167 
	C177.572159,255.520096 176.793686,254.883713 176.015198,254.247330 
	C176.942657,254.226074 177.870102,254.204819 179.033539,254.409088 
	C179.269501,254.634613 179.124161,254.660477 178.937408,254.857162 
	C178.501587,255.395004 178.252533,255.736160 178.003479,256.077332 
	C178.003479,256.077332 178.212891,255.959824 178.281769,256.058167 
z"/>
<path fill="#1C1A1A" opacity="1.000000" stroke="none" 
	d="
M233.193680,182.928177 
	C233.160782,183.108963 233.127884,183.289749 233.053497,183.743088 
	C232.405838,183.528793 231.799652,183.041946 231.088867,182.271576 
	C231.166138,181.960068 231.347992,181.932114 232.007812,182.021317 
	C232.721741,182.401703 232.957718,182.664948 233.193680,182.928177 
z"/>
<path fill="#666666" opacity="1.000000" stroke="none" 
	d="
M172.215591,255.806793 
	C172.763931,256.081940 173.127426,256.396240 173.707916,256.999176 
	C173.534943,257.240082 173.144974,257.192291 172.278870,256.940369 
	C171.680359,256.591003 171.557983,256.445770 171.435593,256.300507 
	C171.592819,256.095093 171.791199,255.943573 172.215591,255.806793 
z"/>
<path fill="#1C1A1A" opacity="1.000000" stroke="none" 
	d="
M223.191010,175.162735 
	C223.502686,175.194122 224.042038,175.408508 224.800385,175.816116 
	C224.485809,175.788147 223.952240,175.566940 223.191010,175.162735 
z"/>
<path fill="#1C1A1A" opacity="1.000000" stroke="none" 
	d="
M222.056122,173.262573 
	C222.286407,173.475006 222.583252,173.971405 222.950256,174.752228 
	C222.721161,174.539932 222.421921,174.043228 222.056122,173.262573 
z"/>
<path fill="#1C1A1A" opacity="1.000000" stroke="none" 
	d="
M229.095718,179.946960 
	C229.208344,179.978653 229.455750,180.262421 229.858215,180.779785 
	C229.752365,180.741913 229.491440,180.470459 229.095718,179.946960 
z"/>
<path fill="#1C1A1A" opacity="1.000000" stroke="none" 
	d="
M226.168121,177.201324 
	C226.282349,177.210846 226.578751,177.435516 227.085541,177.849960 
	C226.980713,177.831985 226.665512,177.624237 226.168121,177.201324 
z"/>
<path fill="#1C1A1A" opacity="1.000000" stroke="none" 
	d="
M230.127045,181.188477 
	C230.267502,181.160019 230.514832,181.372238 230.874481,181.820435 
	C230.731125,181.854126 230.480164,181.645035 230.127045,181.188477 
z"/>
<path fill="#1C1A1A" opacity="1.000000" stroke="none" 
	d="
M225.125732,176.184753 
	C225.262695,176.159683 225.508911,176.371826 225.869141,176.816833 
	C225.728348,176.847900 225.478943,176.638657 225.125732,176.184753 
z"/>
<path fill="#1C1A1A" opacity="1.000000" stroke="none" 
	d="
M220.096771,170.957703 
	C220.206894,170.990143 220.454117,171.271378 220.857788,171.783508 
	C220.754120,171.745117 220.493988,171.475784 220.096771,170.957703 
z"/>
<path fill="#1C1A1A" opacity="1.000000" stroke="none" 
	d="
M233.121948,184.182617 
	C233.261169,184.155518 233.508575,184.367828 233.869019,184.815079 
	C233.725403,184.848938 233.474747,184.639603 233.121948,184.182617 
z"/>
<path fill="#1C1A1A" opacity="1.000000" stroke="none" 
	d="
M234.126663,185.187531 
	C234.266174,185.159714 234.512650,185.371292 234.871307,185.817703 
	C234.728714,185.850876 234.478760,185.642349 234.126663,185.187531 
z"/>
<path fill="#666666" opacity="1.000000" stroke="none" 
	d="
M171.236694,257.900543 
	C170.997772,257.702423 171.009415,257.492767 171.041473,256.968414 
	C171.061905,256.653717 171.177277,256.400269 171.306427,256.350403 
	C171.557983,256.445770 171.680359,256.591003 171.981659,256.957886 
	C171.936142,257.416046 171.711700,257.652496 171.236694,257.900543 
z"/>
<path fill="#1C1A1A" opacity="1.000000" stroke="none" 
	d="
M235.165894,186.196457 
	C235.274857,186.211380 235.564911,186.437744 236.061737,186.852966 
	C235.961334,186.830521 235.654160,186.619217 235.165894,186.196457 
z"/>
<path fill="#707070" opacity="1.000000" stroke="none" 
	d="
M178.358795,255.976440 
	C178.252533,255.736160 178.501587,255.395004 178.919235,254.785614 
	C178.963242,254.970108 178.838684,255.422821 178.358795,255.976440 
z"/>
<path fill="#1C1A1A" opacity="1.000000" stroke="none" 
	d="
M237.099030,187.974854 
	C237.204498,188.008972 237.451019,188.286026 237.856384,188.789215 
	C237.756851,188.749496 237.498489,188.483643 237.099030,187.974854 
z"/>
<path fill="#666666" opacity="1.000000" stroke="none" 
	d="
M176.845322,249.716949 
	C177.027267,249.886810 176.595505,249.939651 176.595505,249.939651 
	C176.595505,249.939651 176.274460,249.656845 176.238708,249.507309 
	C176.202957,249.357773 176.663376,249.547089 176.845322,249.716949 
z"/>
<path fill="#1C1A1A" opacity="1.000000" stroke="none" 
	d="
M238.124939,189.185303 
	C238.263718,189.158264 238.510315,189.369934 238.869537,189.815918 
	C238.726807,189.849182 238.476990,189.640442 238.124939,189.185303 
z"/>
<path fill="#1C1A1A" opacity="1.000000" stroke="none" 
	d="
M239.170349,190.202881 
	C239.286148,190.210953 239.585999,190.435394 240.099823,190.848938 
	C239.994019,190.831772 239.674225,190.625519 239.170349,190.202881 
z"/>
<path fill="#1C1A1A" opacity="1.000000" stroke="none" 
	d="
M242.095657,192.936127 
	C242.209518,192.968048 242.456635,193.254883 242.858383,193.777405 
	C242.751648,193.739090 242.490280,193.465057 242.095657,192.936127 
z"/>
<path fill="#1C1A1A" opacity="1.000000" stroke="none" 
	d="
M243.171967,194.204651 
	C243.289474,194.210938 243.592087,194.434875 244.110947,194.847672 
	C244.003815,194.831802 243.680435,194.627045 243.171967,194.204651 
z"/>
<path fill="#1C1A1A" opacity="1.000000" stroke="none" 
	d="
M216.096100,166.947510 
	C216.208008,166.979675 216.455124,167.263535 216.857864,167.780518 
	C216.752747,167.742157 216.492020,167.470673 216.096100,166.947510 
z"/>
<path fill="#1C1A1A" opacity="1.000000" stroke="none" 
	d="
M217.168488,168.202225 
	C217.283493,168.210907 217.580612,168.435303 218.088470,168.849548 
	C217.983017,168.832245 217.666794,168.625107 217.168488,168.202225 
z"/>
<path fill="#1C1A1A" opacity="1.000000" stroke="none" 
	d="
M221.127533,172.186005 
	C221.263885,172.161850 221.510254,172.374725 221.871704,172.820221 
	C221.732254,172.849609 221.482513,172.639694 221.127533,172.186005 
z"/>
<path fill="#D34259" opacity="1.000000" stroke="none" 
	d="
M403.077087,243.012695 
	C403.077087,238.542755 403.077087,234.570587 403.077087,229.866379 
	C405.328430,229.866379 407.245422,229.873444 409.162354,229.864975 
	C413.631439,229.845245 416.028351,232.000961 416.033447,236.531586 
	C416.052673,253.681564 416.142212,270.832489 415.986816,287.981110 
	C415.933044,293.911926 412.462616,295.533447 403.077087,294.189453 
	C403.077087,277.362152 403.077087,260.436310 403.077087,243.012695 
z"/>
<path fill="#D34259" opacity="1.000000" stroke="none" 
	d="
M297.937958,257.000000 
	C298.037811,249.510910 298.034729,242.518311 298.270905,235.533798 
	C298.450867,230.212006 300.462494,228.158020 304.975281,228.141434 
	C309.479156,228.124878 311.732391,230.281464 311.766266,235.464737 
	C311.882629,253.271271 311.896210,271.079559 311.771576,288.885956 
	C311.733673,294.303375 309.753998,296.145325 305.043060,296.162567 
	C300.280060,296.179993 298.421082,294.428497 298.289246,288.951630 
	C298.036987,278.471008 298.040558,267.984222 297.937958,257.000000 
z"/>
<path fill="#D3455C" opacity="1.000000" stroke="none" 
	d="
M350.747253,239.846146 
	C350.803192,237.718430 350.884369,236.053162 350.885742,234.387833 
	C350.889465,229.880173 353.569458,228.134933 357.610474,228.165375 
	C361.716553,228.196304 364.162933,230.173157 364.158844,234.597366 
	C364.141907,252.919373 364.221283,271.241760 364.120544,289.563202 
	C364.093719,294.445557 362.014679,296.197937 357.361725,296.189301 
	C352.706482,296.180664 350.848602,293.736572 350.850311,289.274200 
	C350.856537,272.952332 350.780884,256.630432 350.747253,239.846146 
z"/>
<path fill="#1C1A1A" opacity="1.000000" stroke="none" 
	d="
M128.957062,351.058746 
	C128.684708,350.883057 128.451553,350.665344 128.128784,350.202820 
	C128.000000,350.000000 128.002213,349.996490 128.002213,349.996490 
	C128.276031,350.163269 128.522736,350.363464 128.870300,350.804260 
	C128.998245,351.011414 128.957062,351.058746 128.957062,351.058746 
z"/>
<path fill="#1C1A1A" opacity="1.000000" stroke="none" 
	d="
M123.978615,346.031281 
	C123.978615,346.031281 123.964165,345.890564 123.981354,345.947571 
	C123.998550,346.004608 123.978615,346.031281 123.978615,346.031281 
z"/>
<path fill="#1C1A1A" opacity="1.000000" stroke="none" 
	d="
M124.967964,347.045807 
	C124.692200,346.880127 124.452911,346.672424 124.114357,346.226990 
	C123.978615,346.031281 123.998550,346.004608 124.011368,345.993927 
	C124.291801,346.156281 124.531807,346.361572 124.871307,346.803925 
	C124.998421,347.008667 124.967964,347.045807 124.967964,347.045807 
z"/>
<path fill="#1C1A1A" opacity="1.000000" stroke="none" 
	d="
M125.970268,348.043549 
	C125.693123,347.881592 125.451569,347.677490 125.106781,347.238556 
	C124.967964,347.045807 124.998421,347.008667 125.016434,346.991943 
	C125.299095,347.151794 125.536407,347.359558 125.872711,347.803223 
	C125.999031,348.007874 125.970268,348.043549 125.970268,348.043549 
z"/>
<path fill="#1C1A1A" opacity="1.000000" stroke="none" 
	d="
M126.015823,347.992432 
	C126.291222,348.159760 126.521484,348.373169 126.861702,348.808563 
	C127.000000,349.000000 127.000694,348.998840 127.000694,348.998840 
	C126.725281,348.840759 126.479179,348.645691 126.116325,348.228577 
	C125.970268,348.043549 125.999031,348.007874 126.015823,347.992432 
z"/>
<path fill="#1C1A1A" opacity="1.000000" stroke="none" 
	d="
M126.999512,349.000244 
	C127.263367,349.177032 127.500916,349.384277 127.856934,349.809357 
	C128.002213,349.996490 128.000000,350.000000 127.998016,350.001312 
	C127.727592,349.830444 127.489586,349.623322 127.141342,349.190002 
	C127.000694,348.998840 127.000000,349.000000 126.999512,349.000244 
z"/>
<path fill="#1C1A1A" opacity="1.000000" stroke="none" 
	d="
M129.020859,350.989685 
	C129.309830,351.142487 129.548218,351.349274 129.878662,351.799988 
	C129.998703,352.011688 129.957932,352.059204 129.957932,352.059204 
	C129.678543,351.899384 129.436691,351.695099 129.094727,351.252563 
	C128.957062,351.058746 128.998245,351.011414 129.020859,350.989685 
z"/>
<path fill="#1C1A1A" opacity="1.000000" stroke="none" 
	d="
M130.021164,351.989868 
	C130.303986,352.149384 130.534592,352.362854 130.867706,352.804230 
	C131.000000,353.000000 130.995468,353.007324 130.995468,353.007324 
	C130.716125,352.854645 130.467697,352.662079 130.104065,352.244385 
	C129.957932,352.059204 129.998703,352.011688 130.021164,351.989868 
z"/>
<path fill="#1C1A1A" opacity="1.000000" stroke="none" 
	d="
M131.003143,352.997986 
	C131.268906,353.174652 131.504715,353.383545 131.856873,353.811340 
	C132.000000,354.000000 131.998734,354.002380 131.998734,354.002380 
	C131.729355,353.832001 131.489899,353.626678 131.137924,353.196899 
	C130.995468,353.007324 131.000000,353.000000 131.003143,352.997986 
z"/>
<path fill="#1C1A1A" opacity="1.000000" stroke="none" 
	d="
M132.000793,353.999390 
	C132.271637,354.169678 132.515625,354.372040 132.866211,354.806702 
	C132.998871,355.007629 132.969101,355.043762 132.969101,355.043762 
	C132.698990,354.867950 132.465088,354.652771 132.133057,354.200317 
	C131.998734,354.002380 132.000000,354.000000 132.000793,353.999390 
z"/>
<path fill="#1C1A1A" opacity="1.000000" stroke="none" 
	d="
M133.016113,354.991882 
	C133.301773,355.148041 133.541122,355.353760 133.875031,355.800232 
	C133.998642,356.007202 133.967880,356.044708 133.967880,356.044708 
	C133.688370,355.885437 133.446381,355.681641 133.105499,355.238525 
	C132.969101,355.043762 132.998871,355.007629 133.016113,354.991882 
z"/>
<path fill="#1C1A1A" opacity="1.000000" stroke="none" 
	d="
M134.970947,357.018921 
	C134.672852,356.881134 134.433151,356.680359 134.099548,356.239624 
	C133.967880,356.044708 133.998642,356.007202 134.017212,355.990417 
	C134.307037,356.137390 134.545639,356.339661 134.889984,356.770569 
	C135.028412,356.960632 134.991623,357.001038 134.970947,357.018921 
z"/>
<path fill="#050202" opacity="1.000000" stroke="none" 
	d="
M250.942902,164.957687 
	C250.473907,164.948990 250.139725,164.806061 249.805542,164.663116 
	C250.085068,164.383759 250.364609,164.104385 250.644135,163.825027 
	C250.788666,164.157837 250.933197,164.490646 250.942902,164.957687 
z"/>
<path fill="#050202" opacity="1.000000" stroke="none" 
	d="
M236.857285,177.342728 
	C237.306671,177.117264 237.688614,177.062393 238.070557,177.007523 
	C237.945587,177.375610 237.820618,177.743683 237.695663,178.111771 
	C237.393723,177.912277 237.091782,177.712799 236.857285,177.342728 
z"/>
<path fill="#050202" opacity="1.000000" stroke="none" 
	d="
M233.371185,182.775909 
	C232.957718,182.664948 232.721741,182.401703 232.279205,181.971283 
	C232.735535,181.521484 233.398422,181.238861 234.061310,180.956238 
	C233.890427,181.512039 233.719559,182.067841 233.371185,182.775909 
z"/>
<path fill="#050202" opacity="1.000000" stroke="none" 
	d="
M245.785873,168.968826 
	C245.905884,168.857162 246.021347,168.834381 246.136795,168.811600 
	C246.018295,168.893631 245.899811,168.975677 245.785873,168.968826 
z"/>
<path fill="#020101" opacity="1.000000" stroke="none" 
	d="
M182.734375,251.550537 
	C182.464584,251.582306 182.367615,251.466049 182.270660,251.349792 
	C182.482849,251.367355 182.695023,251.384918 182.734375,251.550537 
z"/>
</svg>